<svg height="682.66669pt" viewBox="-21 -21 682.66669 682.66669" width="682.66669pt" xmlns="http://www.w3.org/2000/svg"><path d="m640 235.210938c0-36.1875-29.4375-65.625-65.625-65.625h-104.3125l125.074219-41.695313c26.035156-8.730469 44.863281-33.335937 44.863281-62.265625 0-36.1875-29.4375-65.625-65.625-65.625h-508.75c-36.1875 0-65.625 29.4375-65.625 65.625s29.4375 65.625 65.625 65.625h104.304688l-125.066407 41.6875c-26.035156 8.738281-44.863281 33.335938-44.863281 62.273438 0 36.179687 29.4375 65.625 65.625 65.625h104.304688l-125.066407 41.6875c-26.035156 8.730468-44.863281 33.335937-44.863281 62.265624 0 36.1875 29.4375 65.625 65.625 65.625h104.304688l-125.066407 41.695313c-26.035156 8.730469-44.863281 33.335937-44.863281 62.265625 0 36.1875 29.4375 65.625 65.625 65.625h508.75c36.1875 0 65.625-29.4375 65.625-65.625s-29.4375-65.625-65.625-65.625h-104.3125l125.074219-41.6875c26.035156-8.738281 44.863281-33.335938 44.863281-62.273438 0-36.179687-29.4375-65.625-65.625-65.625h-104.3125l125.074219-41.6875c26.035156-8.730468 44.863281-33.335937 44.863281-62.265624zm-602.5-169.585938c0-15.507812 12.617188-28.125 28.125-28.125h508.75c15.507812 0 28.125 12.617188 28.125 28.125s-12.617188 28.125-28.125 28.125h-508.75c-15.507812 0-28.125-12.617188-28.125-28.125zm428.980469 65.625-115 38.335938h-177.960938l115-38.335938zm136.019531 443.125c0 15.507812-12.617188 28.125-28.125 28.125h-508.75c-15.507812 0-28.125-12.617188-28.125-28.125s12.617188-28.125 28.125-28.125h508.75c15.507812 0 28.125 12.617188 28.125 28.125zm-428.980469-65.625 115-38.335938h177.960938l-115 38.335938zm428.980469-103.960938c0 15.507813-12.617188 28.125-28.125 28.125h-508.75c-15.507812 0-28.125-12.617187-28.125-28.125 0-15.507812 12.617188-28.125 28.125-28.125h508.75c15.507812 0 28.125 12.617188 28.125 28.125zm-428.976562-65.625 114.996093-38.328124h177.957031l-114.996093 38.328124zm400.851562-75.828124h-508.75c-15.507812 0-28.125-12.617188-28.125-28.125 0-15.507813 12.617188-28.125 28.125-28.125h508.75c15.507812 0 28.125 12.617187 28.125 28.125 0 15.507812-12.617188 28.125-28.125 28.125zm0 0"/></svg>