<?xml version="1.0" encoding="iso-8859-1"?>
<!-- Generator: Adobe Illustrator 19.0.0, SVG Export Plug-In . SVG Version: 6.00 Build 0)  -->
<svg version="1.1" id="Layer_1" xmlns="http://www.w3.org/2000/svg" xmlns:xlink="http://www.w3.org/1999/xlink" x="0px" y="0px"
	 viewBox="0 0 512 512" style="enable-background:new 0 0 512 512;" xml:space="preserve">
<rect x="68.267" y="281.6" style="fill:#0377BC;" width="375.467" height="179.2"/>
<rect x="34.133" y="281.6" style="fill:#02A9F4;" width="375.467" height="179.2"/>
<path style="fill:#F57C00;" d="M499.456,270.592l-137.984-86.528c-4.275,8.038-9.489,15.548-15.531,22.357
	c-4.864,5.658-10.266,10.829-16.128,15.445c-3.55,2.79-7.253,5.385-11.093,7.765c-18.825,11.699-40.559,17.877-62.72,17.835
	c-8.61,0.026-17.203-0.922-25.6-2.816c-13.141-2.85-25.694-7.936-37.12-15.019c-3.84-2.381-7.543-4.975-11.093-7.765
	c-13.039-10.291-23.817-23.159-31.659-37.803l-35.669,22.357l-102.4,64.171c-2.475,1.545-3.985,4.25-4.011,7.168v20.907
	c0,4.71,3.823,8.533,8.533,8.533H25.6c4.71,0,8.533,3.823,8.533,8.533v179.2c0,4.71,3.823,8.533,8.533,8.533h17.067
	c4.71,0,8.533-3.823,8.533-8.533v-204.8c0-4.71,3.823-8.533,8.533-8.533h358.4c4.71,0,8.533,3.823,8.533,8.533v204.8
	c0,4.71,3.823,8.533,8.533,8.533h17.067c4.71,0,8.533-3.823,8.533-8.533v-179.2c0-4.71,3.823-8.533,8.533-8.533h8.533
	c4.71,0,8.533-3.823,8.533-8.533V277.76C503.441,274.842,501.931,272.137,499.456,270.592z"/>
<path style="fill:#FF9801;" d="M452.267,277.76v20.907c0,4.71-3.823,8.533-8.533,8.533v-17.067c0-4.71-3.823-8.533-8.533-8.533H76.8
	c-4.71,0-8.533,3.823-8.533,8.533v204.8c0,4.71-3.823,8.533-8.533,8.533H42.667c-4.71,0-8.533-3.823-8.533-8.533v-179.2
	c0-4.71-3.823-8.533-8.533-8.533h-8.533c-4.71,0-8.533-3.823-8.533-8.533V277.76c0.026-2.918,1.536-5.623,4.011-7.168l102.4-64.171
	l35.669-22.357c7.817,14.635,18.569,27.503,31.573,37.803c3.55,2.79,7.253,5.385,11.093,7.765
	c11.426,7.083,23.979,12.169,37.12,15.019c8.397,1.894,16.99,2.842,25.6,2.816c22.161,0.043,43.895-6.135,62.72-17.835
	c3.84-2.381,7.543-4.975,11.093-7.765c5.862-4.617,11.264-9.788,16.128-15.445l102.4,64.171
	C450.782,272.162,452.258,274.859,452.267,277.76z"/>
<path d="M469.333,512h-17.067c-9.429,0-17.067-7.637-17.067-17.067v-204.8H76.8v204.8c0,9.429-7.637,17.067-17.067,17.067H42.667
	c-9.429,0-17.067-7.637-17.067-17.067v-179.2h-8.533C7.637,315.733,0,308.096,0,298.667V277.76
	c0.017-5.862,3.046-11.315,8.021-14.421l137.984-86.528c4.002-2.483,9.267-1.254,11.75,2.756c0.102,0.162,0.196,0.324,0.282,0.486
	c28.629,54.161,95.753,74.863,149.914,46.234c2.116-1.118,4.198-2.313,6.246-3.567c16.802-10.445,30.524-25.173,39.765-42.667
	c2.21-4.164,7.381-5.734,11.546-3.524c0.171,0.085,0.333,0.179,0.486,0.282l137.984,86.528c4.975,3.106,8.004,8.559,8.021,14.421
	v20.907c0,9.429-7.637,17.067-17.067,17.067H486.4v179.2C486.4,504.363,478.763,512,469.333,512z M76.8,273.067h358.4
	c9.429,0,17.067,7.637,17.067,17.067v204.8h17.067v-179.2c0-9.429,7.637-17.067,17.067-17.067h8.533v-20.821l-130.56-81.579
	c-10.445,16.589-24.542,30.575-41.216,40.875c-41.216,25.446-93.269,25.446-134.485,0c-16.614-10.325-30.652-24.303-41.045-40.875
	l-130.56,81.579v20.821H25.6c9.429,0,17.067,7.637,17.067,17.067v179.2h17.067v-204.8C59.733,280.704,67.371,273.067,76.8,273.067z"
	/>
<path style="fill:#1566C0;" d="M375.467,128c0.043,19.558-4.762,38.818-13.995,56.064c-7.842,14.643-18.62,27.511-31.659,37.803
	c-3.55,2.79-7.253,5.385-11.093,7.765c-18.825,11.699-40.559,17.877-62.72,17.835c-5.709-0.009-11.409-0.41-17.067-1.195
	c-16.23-2.475-31.778-8.286-45.653-17.067c-3.84-2.381-7.543-4.975-11.093-7.765c-13.039-10.291-23.817-23.159-31.659-37.803
	c-9.165-17.118-13.969-36.224-13.995-55.637c-0.017-59.401,43.614-109.79,102.4-118.272c5.658-0.785,11.358-1.186,17.067-1.195
	C321.98,8.533,375.467,62.02,375.467,128z"/>
<path style="fill:#2296F3;" d="M341.333,128c0.043,19.558-4.762,38.818-13.995,56.064c-7.842,14.643-18.62,27.511-31.659,37.803
	c-3.55,2.79-7.253,5.385-11.093,7.765c-13.875,8.781-29.423,14.592-45.653,17.067c-16.23-2.475-31.778-8.286-45.653-17.067
	c-3.84-2.381-7.543-4.975-11.093-7.765c-13.039-10.291-23.817-23.159-31.659-37.803c-9.233-17.246-14.037-36.506-13.995-56.064
	c-0.017-59.401,43.614-109.79,102.4-118.272C297.719,18.21,341.35,68.599,341.333,128z"/>
<path d="M256,256c-23.757,0.034-47.053-6.588-67.243-19.115c-19.328-12.049-35.115-29.013-45.739-49.152
	C133.146,169.37,127.983,148.847,128,128C128,57.31,185.31,0,256,0s128,57.31,128,128c0.017,20.847-5.146,41.37-15.019,59.733
	c-10.675,20.019-26.453,36.855-45.739,48.811C303.087,249.19,279.791,255.932,256,256z M256,17.067
	c-61.269,0-110.933,49.664-110.933,110.933c-0.085,18.159,4.378,36.053,12.971,52.053c28.629,54.161,95.753,74.863,149.914,46.234
	c2.116-1.118,4.198-2.313,6.246-3.567c16.802-10.445,30.524-25.173,39.765-42.667c8.593-16,13.047-33.894,12.971-52.053
	C366.933,66.731,317.269,17.067,256,17.067z"/>
<path d="M443.733,324.267H145.067c-4.71,0-8.533-3.823-8.533-8.533s3.823-8.533,8.533-8.533h298.667c4.71,0,8.533,3.823,8.533,8.533
	S448.444,324.267,443.733,324.267z"/>
<path d="M110.933,324.267H68.267c-4.71,0-8.533-3.823-8.533-8.533s3.823-8.533,8.533-8.533h42.667c4.71,0,8.533,3.823,8.533,8.533
	S115.644,324.267,110.933,324.267z"/>
<path d="M443.733,358.4H145.067c-4.71,0-8.533-3.823-8.533-8.533s3.823-8.533,8.533-8.533h298.667c4.71,0,8.533,3.823,8.533,8.533
	S448.444,358.4,443.733,358.4z"/>
<path d="M110.933,358.4H68.267c-4.71,0-8.533-3.823-8.533-8.533s3.823-8.533,8.533-8.533h42.667c4.71,0,8.533,3.823,8.533,8.533
	S115.644,358.4,110.933,358.4z"/>
<path d="M443.733,392.533H145.067c-4.71,0-8.533-3.823-8.533-8.533s3.823-8.533,8.533-8.533h298.667c4.71,0,8.533,3.823,8.533,8.533
	S448.444,392.533,443.733,392.533z"/>
<path d="M110.933,392.533H68.267c-4.71,0-8.533-3.823-8.533-8.533s3.823-8.533,8.533-8.533h42.667c4.71,0,8.533,3.823,8.533,8.533
	S115.644,392.533,110.933,392.533z"/>
<path d="M443.733,426.667H145.067c-4.71,0-8.533-3.823-8.533-8.533s3.823-8.533,8.533-8.533h298.667c4.71,0,8.533,3.823,8.533,8.533
	S448.444,426.667,443.733,426.667z"/>
<path d="M110.933,426.667H68.267c-4.71,0-8.533-3.823-8.533-8.533s3.823-8.533,8.533-8.533h42.667c4.71,0,8.533,3.823,8.533,8.533
	S115.644,426.667,110.933,426.667z"/>
<path d="M443.733,460.8H145.067c-4.71,0-8.533-3.823-8.533-8.533c0-4.71,3.823-8.533,8.533-8.533h298.667
	c4.71,0,8.533,3.823,8.533,8.533C452.267,456.977,448.444,460.8,443.733,460.8z"/>
<path d="M110.933,460.8H68.267c-4.71,0-8.533-3.823-8.533-8.533c0-4.71,3.823-8.533,8.533-8.533h42.667
	c4.71,0,8.533,3.823,8.533,8.533C119.467,456.977,115.644,460.8,110.933,460.8z"/>
<path style="fill:#FDD834;" d="M307.2,119.467h-17.067c-4.71,0-8.533,3.823-8.533,8.533v68.267c0,4.71-3.823,8.533-8.533,8.533
	h-34.133c-4.71,0-8.533-3.823-8.533-8.533V128c0-4.71-3.823-8.533-8.533-8.533H204.8c-4.71,0.026-8.559-3.772-8.585-8.482
	c-0.017-2.295,0.896-4.497,2.526-6.11l51.2-51.2c3.319-3.345,8.721-3.371,12.066-0.051c0.017,0.017,0.034,0.034,0.051,0.051
	l51.2,51.2c3.345,3.319,3.371,8.721,0.051,12.066C311.697,118.571,309.495,119.484,307.2,119.467z"/>
<path style="fill:#FFEB3A;" d="M273.067,119.467H256c-4.71,0-8.533,3.823-8.533,8.533v68.267c0,4.71-3.823,8.533-8.533,8.533
	s-8.533-3.823-8.533-8.533V128c0-4.71-3.823-8.533-8.533-8.533H204.8c-4.71,0.026-8.559-3.772-8.585-8.482
	c-0.017-2.295,0.896-4.497,2.526-6.11l40.192-40.192l40.192,40.192c3.345,3.319,3.371,8.721,0.051,12.066
	C277.564,118.571,275.362,119.484,273.067,119.467z"/>
<path d="M273.067,213.333h-34.133c-9.429,0-17.067-7.637-17.067-17.067V128H204.8c-9.429-0.043-17.033-7.714-16.998-17.135
	c0.017-4.48,1.801-8.781,4.966-11.964l51.2-51.2l0,0c6.665-6.665,17.468-6.673,24.132-0.017c0.009,0.009,0.009,0.009,0.017,0.017
	l51.2,51.2c6.647,6.682,6.613,17.493-0.068,24.132c-3.209,3.183-7.535,4.966-12.049,4.966h-17.067v68.267
	C290.133,205.696,282.496,213.333,273.067,213.333z M256,59.733l-51.2,51.2h17.067c9.429,0,17.067,7.637,17.067,17.067v68.267
	h34.133V128c0-9.429,7.637-17.067,17.067-17.067H307.2L256,59.733z"/>
<g>
</g>
<g>
</g>
<g>
</g>
<g>
</g>
<g>
</g>
<g>
</g>
<g>
</g>
<g>
</g>
<g>
</g>
<g>
</g>
<g>
</g>
<g>
</g>
<g>
</g>
<g>
</g>
<g>
</g>
</svg>
