<?xml version="1.0" encoding="iso-8859-1"?>
<!-- Generator: Adobe Illustrator 19.0.0, SVG Export Plug-In . SVG Version: 6.00 Build 0)  -->
<svg version="1.1" id="Capa_1" xmlns="http://www.w3.org/2000/svg" xmlns:xlink="http://www.w3.org/1999/xlink" x="0px" y="0px"
	 viewBox="0 0 512.001 512.001" style="enable-background:new 0 0 512.001 512.001;" xml:space="preserve">
<path style="fill:#79A1E8;" d="M392.862,72.024c54.389,118.104,187.364,252.257,75.925,303.577S79.798,432.681,25.41,314.576
	C-28.982,196.472,5.108,135.323,116.547,84.002C227.985,32.681,338.472-46.08,392.862,72.024z"/>
<rect x="170.212" y="198.121" style="fill:#D7ECF9;" width="308.563" height="30.692"/>
<rect x="180.162" y="228.811" style="fill:#473CBA;" width="288.654" height="192.556"/>
<polygon style="fill:#FFFFFF;" points="131.915,228.809 440.477,228.809 440.477,198.116 286.196,112.156 131.915,198.116 "/>
<polygon style="fill:#D7ECF9;" points="440.477,198.116 354.975,150.477 276.644,228.809 440.477,228.809 "/>
<rect x="141.867" y="228.811" style="fill:#7693DD;" width="288.654" height="192.556"/>
<g>
	<rect x="159.482" y="228.811" style="fill:#E1F0FA;" width="253.435" height="38.879"/>
	<rect x="159.482" y="266.765" style="fill:#E1F0FA;" width="253.435" height="38.879"/>
	<rect x="159.482" y="305.651" style="fill:#E1F0FA;" width="253.435" height="38.879"/>
	<rect x="159.482" y="343.606" style="fill:#E1F0FA;" width="253.435" height="38.879"/>
	<rect x="159.482" y="382.481" style="fill:#E1F0FA;" width="253.435" height="38.879"/>
</g>
<polygon style="fill:#BCD2DD;" points="427.16,232.462 356.14,232.462 162.843,417.825 427.16,417.825 "/>
<path style="fill:#4B31AA;" d="M468.82,224.802h-38.296h-17.61H180.163h-20.685h-17.61c-2.213,0-4.008,1.794-4.008,4.008v192.557
	c0,2.213,1.795,4.008,4.008,4.008h17.61h20.685h232.751h17.61h38.296c2.213,0,4.008-1.794,4.008-4.008V228.809
	C472.828,226.596,471.033,224.802,468.82,224.802z M192.894,232.817h216.012v29.944H163.486v-29.944H192.894z M155.471,305.647
	v37.96v0.92v37.96v34.871h-9.595V232.817h9.595v33.952v0.919V305.647z M408.906,417.358H189.89h-26.405v-30.863h245.419
	L408.906,417.358L408.906,417.358z M408.906,378.48H163.486v-29.945h245.419V378.48z M408.906,339.6H163.486v-29.944h245.419V339.6z
	 M163.486,301.64v-29.944h245.419v29.944L163.486,301.64L163.486,301.64z M426.517,417.358h-9.595v-34.871v-37.96v-0.92v-37.96
	v-37.96v-0.919v-33.952h9.595V417.358z M464.812,417.358h-30.28V232.816h30.28V417.358z"/>
<polygon style="fill:#D7ECF9;" points="286.196,112.156 324.492,112.156 478.774,198.116 440.477,198.116 "/>
<path style="fill:#4B31AA;" d="M482.767,198.307c0.071-1.497-0.694-2.94-2.042-3.691l-154.281-85.96
	c-0.597-0.333-1.268-0.507-1.951-0.507h-38.297c-0.008,0-0.015,0.002-0.023,0.002c-0.192,0.001-0.384,0.019-0.575,0.048
	c-0.066,0.01-0.13,0.024-0.196,0.037c-0.134,0.027-0.267,0.061-0.398,0.102c-0.065,0.02-0.129,0.039-0.193,0.063
	c-0.147,0.054-0.292,0.119-0.433,0.191c-0.036,0.018-0.073,0.032-0.108,0.051c-0.008,0.005-0.017,0.007-0.025,0.012l-154.281,85.96
	c-1.269,0.707-2.057,2.047-2.057,3.501v30.693c0,2.213,1.795,4.008,4.008,4.008h50.608h257.956h38.297
	c2.213,0,4.008-1.795,4.008-4.008v-30.503C482.777,198.307,482.772,198.307,482.767,198.307z M463.346,194.109h-21.828
	l-139.895-77.944h21.828L463.346,194.109z M183.41,224.802h-47.489v-24.33l150.273-83.727l150.273,83.727v24.33H183.41z
	 M474.766,224.802h-30.281v-22.677h27.103h3.178V224.802z"/>
<circle style="fill:#F28F20;" cx="286.199" cy="177.511" r="22.375"/>
<path style="fill:#4B31AA;" d="M286.196,203.894c-14.547,0-26.383-11.836-26.383-26.383c0-14.546,11.836-26.382,26.383-26.382
	c14.546,0,26.383,11.835,26.383,26.382S300.742,203.894,286.196,203.894z M286.196,159.144c-10.127,0-18.367,8.239-18.367,18.366
	c0,10.127,8.24,18.367,18.367,18.367c10.127,0,18.367-8.24,18.367-18.367C304.563,167.383,296.322,159.144,286.196,159.144z"/>
<g>
	<ellipse style="fill:#473CBA;" cx="112.199" cy="458.51" rx="80.227" ry="12.166"/>
	<ellipse style="fill:#473CBA;" cx="294.876" cy="489.48" rx="166.956" ry="12.166"/>
</g>
<path style="fill:#79A1E8;" d="M182.271,304.99H78.19c-10.897,0-19.731-8.834-19.731-19.732V85.482
	c0-10.897,8.834-19.732,19.731-19.732h104.081c10.897,0,19.731,8.834,19.731,19.732v199.776
	C202.003,296.156,193.167,304.99,182.271,304.99z"/>
<path style="fill:#E1F0FA;" d="M163.774,304.99H59.692c-10.897,0-19.732-8.834-19.732-19.732V85.482
	c0-10.897,8.834-19.732,19.732-19.732h104.081c10.897,0,19.732,8.834,19.732,19.732v199.776
	C183.504,296.156,174.67,304.99,163.774,304.99z"/>
<path style="fill:#BCD2DD;" d="M39.96,263.554v21.704c0,10.897,8.834,19.732,19.732,19.732h104.081
	c10.897,0,19.732-8.834,19.732-19.732V120.012L39.96,263.554z"/>
<path style="fill:#4B31AA;" d="M182.271,61.743h-18.498h-80.55h-23.53c-13.09,0-23.739,10.649-23.739,23.738v199.777
	c0,13.09,10.65,23.738,23.739,23.738h26.484h77.597h18.498c13.09,0,23.738-10.649,23.738-23.738V85.481
	C206.009,72.392,195.362,61.743,182.271,61.743z M87.636,300.982H59.692c-8.67,0-15.724-7.054-15.724-15.723V85.482
	c0-8.669,7.054-15.723,15.724-15.723h27.792h76.288c8.67,0,15.724,7.054,15.724,15.723V285.26c0,8.669-7.054,15.723-15.724,15.723
	L87.636,300.982L87.636,300.982z M197.994,285.26c0,8.669-7.054,15.723-15.723,15.723h-0.733c3.713-4.191,5.975-9.696,5.975-15.723
	V85.482c0-6.027-2.261-11.533-5.975-15.723h0.733c8.669,0,15.723,7.054,15.723,15.723V285.26z"/>
<rect x="59.939" y="89.179" style="fill:#F9D015;" width="103.592" height="177.577"/>
<polygon style="fill:#D6AF0D;" points="59.939,243.577 59.939,266.76 163.527,266.76 163.527,139.989 "/>
<path style="fill:#4B31AA;" d="M163.526,270.769H59.939c-2.213,0-4.008-1.794-4.008-4.008V89.183c0-2.213,1.795-4.008,4.008-4.008
	h103.587c2.213,0,4.008,1.795,4.008,4.008v177.579C167.534,268.975,165.74,270.769,163.526,270.769z M63.947,262.754h95.572V93.19
	H63.947V262.754z"/>
<g>
	<rect x="71.955" y="110.059" style="fill:#FFFFFF;" width="77.551" height="12.419"/>
	<rect x="71.955" y="122.474" style="fill:#FFFFFF;" width="77.551" height="12.419"/>
	<rect x="71.955" y="133.145" style="fill:#FFFFFF;" width="77.551" height="12.419"/>
	<rect x="71.955" y="145.569" style="fill:#FFFFFF;" width="77.551" height="12.419"/>
</g>
<rect x="71.955" y="158.063" style="fill:#473CBA;" width="77.551" height="30.199"/>
<g>
	<path style="fill:#4B31AA;" d="M149.51,107.051H71.956c-1.66,0-3.006,1.346-3.006,3.006v12.419v12.419v12.419v10.75v1.668v28.535
		c0,1.66,1.346,3.006,3.006,3.006h77.554c1.66,0,3.006-1.346,3.006-3.006v-28.535v-1.668v-10.75v-12.419v-12.419v-12.419
		C152.516,108.396,151.17,107.051,149.51,107.051z M146.504,131.888H74.961v-6.408h71.543V131.888z M146.504,144.307H74.961V137.9
		h71.543V144.307z M74.96,157.2v-6.881h71.543v6.881H74.96z M74.96,113.062h71.543v6.408H74.96V113.062z M74.96,185.261v-21.988
		h71.543v21.988H74.96z"/>
	<path style="fill:#4B31AA;" d="M130.025,226.72l-19.196-19.196c-1.566-1.566-4.104-1.566-5.667,0L85.964,226.72
		c-1.566,1.565-1.566,4.103,0,5.667c1.564,1.566,4.104,1.566,5.667,0L103.72,220.3v27.273c0,2.213,1.795,4.008,4.008,4.008
		c2.213,0,4.008-1.794,4.008-4.008v-27.807l12.623,12.622c0.782,0.783,1.809,1.174,2.834,1.174s2.052-0.392,2.834-1.174
		C131.59,230.822,131.59,228.284,130.025,226.72z"/>
</g>
<g>
</g>
<g>
</g>
<g>
</g>
<g>
</g>
<g>
</g>
<g>
</g>
<g>
</g>
<g>
</g>
<g>
</g>
<g>
</g>
<g>
</g>
<g>
</g>
<g>
</g>
<g>
</g>
<g>
</g>
</svg>
