<?xml version="1.0"?>
<svg xmlns="http://www.w3.org/2000/svg" height="512px" viewBox="-13 1 511 511.99998" width="512px" class=""><g><path d="m486.050781 407.066406-64.378906-9.152344-28.402344-56.175781-28.398437 56.175781-46.597656 6.625-46.59375-6.625-28.402344-56.175781-28.402344 56.175781-46.597656 6.625-46.59375-6.625-28.402344-56.175781-28.402344 56.175781-64.378906 9.152344 46.609375 44.355469-10.914063 60.578125 57.085938-27.765625 57.082031 27.75-10.914062-60.5625 28.828125-27.429687 28.828125 27.429687-10.914063 60.578125 57.082032-27.765625 57.085937 27.75-10.914063-60.5625 28.828126-27.429687 28.828124 27.429687-10.914062 60.578125 57.082031-27.765625 57.085938 27.75-10.914063-60.5625zm0 0" data-original="#000000" class="active-path" data-old_color="#000000" fill="#FFFFFF"/><path d="m348.273438 254.992188c0-57.890626-47.109376-104.996094-105-104.996094-57.886719 0-104.996094 47.105468-104.996094 104.996094v75h209.996094zm0 0" data-original="#000000" class="active-path" data-old_color="#000000" fill="#FFFFFF"/><path d="m318.273438 74.996094c0-41.351563-33.648438-74.996094-75-74.996094-41.351563 0-74.996094 33.644531-74.996094 74.996094 0 41.351562 33.644531 75 74.996094 75 41.351562 0 75-33.648438 75-75zm0 0" data-original="#000000" class="active-path" data-old_color="#000000" fill="#FFFFFF"/></g> </svg>
