<?xml version="1.0" encoding="iso-8859-1"?>
<!-- Generator: Adobe Illustrator 19.0.0, SVG Export Plug-In . SVG Version: 6.00 Build 0)  -->
<svg xmlns="http://www.w3.org/2000/svg" xmlns:xlink="http://www.w3.org/1999/xlink" version="1.1" id="Capa_1" x="0px" y="0px" viewBox="0 0 512.031 512.031" style="enable-background:new 0 0 512.031 512.031;" xml:space="preserve" width="512" height="512">
<g>
	<g>
		<path style="fill:#E5646E;" d="M499.72,422.818L286.674,53.812c-13.626-23.601-47.691-23.601-61.318,0L12.311,422.818    c-13.626,23.601,3.406,53.103,30.659,53.103h426.091C496.313,475.92,513.346,446.418,499.72,422.818z"/>
		<path style="fill:#FF8086;" d="M499.72,422.818L286.674,53.812c-5.41-9.371-14.053-14.958-23.349-16.887L51.086,403.756    c-8.2,14.203-4.646,33.292,10.63,43.202c5.26,3.413,11.558,4.914,17.828,4.914l422.99,0    C505.658,442.764,505.208,432.324,499.72,422.818z"/>
		<polygon style="fill:#FFFFFF;" points="447.072,427.823 256.016,96.903 64.959,427.823   "/>
		<circle style="fill:#E5646E;" cx="256.016" cy="411.791" r="24.048"/>
		<path style="fill:#E5646E;" d="M264.443,355.678h-16.854c-4.263,0-7.781-3.337-8.005-7.595l-7.172-136.274    c-0.241-4.586,3.412-8.437,8.005-8.437h31.199c4.593,0,8.246,3.851,8.005,8.437l-7.172,136.274    C272.224,352.341,268.706,355.678,264.443,355.678z"/>
		<path style="fill:#DB4655;" d="M268.541,423.314c-13.282,0-24.048-10.767-24.048-24.048c0-3.392,0.719-6.61,1.986-9.537    c-8.532,3.694-14.511,12.173-14.511,22.062c0,13.282,10.767,24.048,24.048,24.048c9.89,0,18.368-5.979,22.062-14.511    C275.151,422.596,271.933,423.314,268.541,423.314z"/>
		<path style="fill:#DB4655;" d="M240.416,203.372c-4.593,0-8.247,3.851-8.005,8.437l7.172,136.274    c0.224,4.258,3.741,7.595,8.005,7.595h9.429l-1.002-152.306H240.416z"/>
	</g>
	<g>
		<path d="M506.215,419.067L293.169,50.062c-7.755-13.432-21.644-21.45-37.154-21.45s-29.399,8.019-37.154,21.45L5.816,419.067    c-7.755,13.432-7.755,29.47,0,42.901c7.755,13.433,21.645,21.451,37.154,21.451h426.091c15.51,0,29.399-8.019,37.154-21.451    C513.97,448.537,513.97,432.499,506.215,419.067z M493.225,454.469c-5.044,8.736-14.077,13.951-24.164,13.951H42.97    c-10.087,0-19.12-5.215-24.164-13.951c-5.043-8.735-5.043-19.166,0-27.901L231.852,57.562c5.043-8.735,14.077-13.95,24.164-13.95    s19.12,5.215,24.164,13.95l213.045,369.006v0C498.268,435.303,498.268,445.733,493.225,454.469z"/>
		<path d="M294.565,148.673c-2.071-3.588-6.658-4.816-10.245-2.745c-3.587,2.071-4.816,6.658-2.745,10.245l152.507,264.15h-121.95    c-4.142,0-7.5,3.358-7.5,7.5s3.358,7.5,7.5,7.5h134.94c2.68,0,5.155-1.43,6.495-3.75s1.34-5.18,0-7.5L294.565,148.673z"/>
		<path d="M199.905,420.323H77.949l178.066-308.421l8.696,15.063c2.071,3.587,6.658,4.816,10.245,2.745    c3.587-2.071,4.816-6.658,2.745-10.245l-15.191-26.313c-1.34-2.32-3.815-3.75-6.495-3.75s-5.156,1.43-6.495,3.75L58.464,424.073    c-1.34,2.32-1.34,5.18,0,7.5s3.815,3.75,6.495,3.75h134.946c4.142,0,7.5-3.358,7.5-7.5S204.047,420.323,199.905,420.323z"/>
		<path d="M256.016,380.243c-17.396,0-31.548,14.153-31.548,31.548c0,17.396,14.152,31.549,31.548,31.549    s31.548-14.153,31.548-31.549C287.564,394.396,273.412,380.243,256.016,380.243z M256.016,428.34    c-9.125,0-16.548-7.424-16.548-16.549s7.423-16.548,16.548-16.548s16.548,7.423,16.548,16.548S265.141,428.34,256.016,428.34z"/>
		<path d="M240.417,195.872c-4.237,0-8.34,1.763-11.256,4.836c-2.916,3.074-4.461,7.263-4.239,11.495l7.172,136.274    c0.434,8.243,7.24,14.701,15.495,14.701h16.854c8.255,0,15.061-6.458,15.495-14.701l7.172-136.274    c0.223-4.231-1.323-8.421-4.239-11.495c-2.917-3.074-7.019-4.836-11.256-4.836H240.417z M272.13,211.415l-7.172,136.274    c-0.014,0.274-0.241,0.489-0.516,0.489h-16.854c-0.275,0-0.501-0.215-0.516-0.489l-7.172-136.274    c-0.003-0.055-0.012-0.221,0.141-0.382c0.153-0.161,0.32-0.161,0.375-0.161h31.198c0.055,0,0.222,0,0.375,0.161    C272.142,211.194,272.133,211.36,272.13,211.415z"/>
	</g>
</g>















</svg>
