<?xml version="1.0"?>
<svg xmlns="http://www.w3.org/2000/svg" xmlns:xlink="http://www.w3.org/1999/xlink" version="1.1" x="0px" y="0px" viewBox="0 0 32 32" style="enable-background:new 0 0 32 32;" xml:space="preserve" width="512px" height="512px"><g><style type="text/css" class="active-path" style="">
	.st0{display:none;}
</style><g id="_x31_9_Private_Storage">
	<g>
		<path d="M16,1.9355469L4,6.2998047V16c0,10.9609375,11.6445313,13.9423828,11.7617188,13.9716797L16,30.0292969    l0.2382813-0.0576172C16.3554688,29.9423828,28,26.9609375,28,16V6.2998047L16,1.9355469z M26,16    c0,8.6787109-8.4091797,11.5068359-9.9960938,11.9628906C14.4736328,27.5097656,6,24.6044922,6,16V7.7001953l10-3.6357422    l10,3.6357422V16z" data-original="#000000" class="active-path" fill="#FFFFFF"/>
		<polygon points="10.7070313,15.2929688 9.2929688,16.7070313 14,21.4140625 22.7070313,12.7070313 21.2929688,11.2929688     14,18.5859375   " data-original="#000000" class="active-path" fill="#FFFFFF"/>
	</g>
</g></g> </svg>
